<?xml version="1.0"?>
<svg xmlns="http://www.w3.org/2000/svg" id="Icons" viewBox="0 0 60 60" width="512" height="512"><path d="M57,50h-.184a2.908,2.908,0,0,0-.6-3,2.954,2.954,0,0,0,0-4A2.987,2.987,0,0,0,54,38H40V6a6.006,6.006,0,0,0-6-6H6A6.006,6.006,0,0,0,0,6V48a6.006,6.006,0,0,0,6,6H34a5.971,5.971,0,0,0,4.712-2.3A2.965,2.965,0,0,0,40,52h.184a2.877,2.877,0,0,0,.036,2.116A2.993,2.993,0,0,0,41,60H55a2.99,2.99,0,0,0,2.78-4.116A2.993,2.993,0,0,0,57,50ZM39,45a1,1,0,0,1,1-1H54a1,1,0,0,1,0,2H40A1,1,0,0,1,39,45Zm15-5a1,1,0,0,1,0,2H40a1,1,0,0,1,0-2ZM34,52H6a4,4,0,0,1-4-4V6A4,4,0,0,1,6,2H34a4,4,0,0,1,4,4V38.78A2.96,2.96,0,0,0,37.78,43a2.954,2.954,0,0,0,0,4,2.935,2.935,0,0,0-.486,3.273A3.994,3.994,0,0,1,34,52Zm5-3a1,1,0,0,1,1-1H54a1,1,0,0,1,0,2H40A1,1,0,0,1,39,49Zm16,9H41a1,1,0,0,1,0-2H55a1,1,0,0,1,0,2Zm2-4H43a1,1,0,0,1,0-2H57a1,1,0,0,1,0,2Z"/><path d="M33,4H7A3,3,0,0,0,4,7v8a3,3,0,0,0,3,3H33a3,3,0,0,0,3-3V7A3,3,0,0,0,33,4ZM21.741,16,27.574,6h2.685L24.426,16Zm-5,0L22.574,6h2.685L19.426,16Zm-6,0L16.574,6h3.685L14.426,16ZM6,15V7A1,1,0,0,1,7,6h7.259L8.426,16H7A1,1,0,0,1,6,15Zm28,0a1,1,0,0,1-1,1H26.741L32.575,6H33a1,1,0,0,1,1,1Z"/><path d="M10,20H7a3,3,0,0,0,0,6h3a3,3,0,0,0,0-6Zm0,4H7a1,1,0,0,1,0-2h3a1,1,0,0,1,0,2Z"/><path d="M22,26a3,3,0,0,0,0-6H18a3,3,0,0,0,0,6Zm-5-3a1,1,0,0,1,1-1h4a1,1,0,0,1,0,2H18A1,1,0,0,1,17,23Z"/><path d="M33,20H30a3,3,0,0,0,0,6h3a3,3,0,0,0,0-6Zm0,4H30a1,1,0,0,1,0-2h3a1,1,0,0,1,0,2Z"/><path d="M9,28H7a2,2,0,0,0-2,2v2a2,2,0,0,0,2,2H9a2,2,0,0,0,2-2V30A2,2,0,0,0,9,28ZM7,32V30H9v2Z"/><path d="M17,28H15a2,2,0,0,0-2,2v2a2,2,0,0,0,2,2h2a2,2,0,0,0,2-2V30A2,2,0,0,0,17,28Zm-2,4V30h2v2Z"/><path d="M25,28H23a2,2,0,0,0-2,2v2a2,2,0,0,0,2,2h2a2,2,0,0,0,2-2V30A2,2,0,0,0,25,28Zm-2,4V30h2v2Z"/><path d="M33,28H31a2,2,0,0,0-2,2v2a2,2,0,0,0,2,2h2a2,2,0,0,0,2-2V30A2,2,0,0,0,33,28Zm-2,4V30h2l0,2Z"/><path d="M9,36H7a2,2,0,0,0-2,2v2a2,2,0,0,0,2,2H9a2,2,0,0,0,2-2V38A2,2,0,0,0,9,36ZM7,40V38H9v2Z"/><path d="M17,36H15a2,2,0,0,0-2,2v2a2,2,0,0,0,2,2h2a2,2,0,0,0,2-2V38A2,2,0,0,0,17,36Zm-2,4V38h2v2Z"/><path d="M25,36H23a2,2,0,0,0-2,2v2a2,2,0,0,0,2,2h2a2,2,0,0,0,2-2V38A2,2,0,0,0,25,36Zm-2,4V38h2v2Z"/><path d="M9,44H7a2,2,0,0,0-2,2v2a2,2,0,0,0,2,2H9a2,2,0,0,0,2-2V46A2,2,0,0,0,9,44ZM7,48V46H9v2Z"/><path d="M17,44H15a2,2,0,0,0-2,2v2a2,2,0,0,0,2,2h2a2,2,0,0,0,2-2V46A2,2,0,0,0,17,44Zm-2,4V46h2v2Z"/><path d="M25,44H23a2,2,0,0,0-2,2v2a2,2,0,0,0,2,2h2a2,2,0,0,0,2-2V46A2,2,0,0,0,25,44Zm-2,4V46h2v2Z"/><path d="M33,36H31a2,2,0,0,0-2,2V48a2,2,0,0,0,2,2h2a2,2,0,0,0,2-2V38A2,2,0,0,0,33,36ZM31,48V38h2l0,10Z"/></svg>
