<svg id="Capa_1" enable-background="new 0 0 512 512" height="512" viewBox="0 0 512 512" width="512" xmlns="http://www.w3.org/2000/svg"><g><path d="m26.088 249.02v13.961c0 4.143 3.357 7.5 7.5 7.5s7.5-3.357 7.5-7.5v-13.961c0-4.143-3.357-7.5-7.5-7.5s-7.5 3.357-7.5 7.5z"/><path d="m476.757 210.152c4.143 0 7.5-3.357 7.5-7.5v-92.692c0-5.068-4.083-9.192-9.103-9.192h-414.383c-5.019 0-9.101 4.124-9.101 9.192v292.08c0 5.068 4.082 9.192 9.101 9.192h414.384c5.02 0 9.103-4.124 9.103-9.192v-169.4c0-4.143-3.357-7.5-7.5-7.5s-7.5 3.357-7.5 7.5v163.593h-402.588v-280.465h402.587v86.884c0 4.142 3.357 7.5 7.5 7.5z"/><path d="m475.062 73.024h-365.832c-4.143 0-7.5 3.357-7.5 7.5s3.357 7.5 7.5 7.5h365.832c12.097 0 21.938 9.841 21.938 21.938v292.078c0 12.096-9.841 21.937-21.938 21.937h-438.124c-12.097-.001-21.938-9.842-21.938-21.937v-292.079c0-12.097 9.841-21.938 21.938-21.938h42.307c4.143 0 7.5-3.357 7.5-7.5s-3.357-7.5-7.5-7.5h-42.307c-20.368.001-36.938 16.571-36.938 36.938v292.079c0 20.367 16.57 36.937 36.938 36.937h438.125c20.367 0 36.938-16.569 36.938-36.937v-292.079c-.001-20.367-16.571-36.937-36.939-36.937z"/><path d="m384.145 206.365c-4.252-.251-8.157 2.426-9.476 6.484-.028.086-.055.173-.08.261l-17.972 63.044-18.624-63.124c-.026-.09-.055-.18-.085-.269-1.36-4.046-5.28-6.672-9.545-6.386-4.259.286-7.797 3.414-8.62 7.691l-14.816 82.094c-.735 4.076 1.973 7.978 6.049 8.713 4.076.729 7.978-1.973 8.713-6.049l10.619-58.838 17.403 58.988c.026.089.054.177.083.264 1.289 3.841 4.867 6.413 8.914 6.412h.049c4.067-.021 7.643-2.634 8.897-6.502.028-.086.055-.172.079-.259l16.805-58.949 11.269 58.96c.777 4.069 4.712 6.739 8.774 5.958 4.068-.777 6.736-4.706 5.958-8.774l-15.711-82.208c-.852-4.181-4.423-7.27-8.683-7.511z"/><path d="m176.904 305.651c12.606 0 24.112-4.807 32.302-14.58 2.661-3.174 2.245-7.904-.929-10.565-3.173-2.661-7.903-2.245-10.565.929-5.315 6.338-12.536 9.217-20.808 9.217-19.106 0-34.65-15.544-34.65-34.65s15.544-34.651 34.65-34.651c6.944 0 13.642 2.045 19.369 5.914 3.432 2.318 8.095 1.416 10.413-2.017 2.318-3.432 1.416-8.094-2.017-10.413-8.216-5.551-17.817-8.484-27.766-8.484-27.377 0-49.65 22.273-49.65 49.651.001 27.375 22.274 49.649 49.651 49.649z"/><path d="m285.16 235.758c0-16.216-13.749-29.409-30.649-29.409h-22.402c-.005 0-.009 0-.014 0s-.009 0-.014 0c-4.143 0-7.5 3.357-7.5 7.5v84.302c0 4.143 3.357 7.5 7.5 7.5s7.5-3.357 7.5-7.5v-31.913l32.449 36.868c2.74 3.114 7.48 3.408 10.585.675 3.109-2.736 3.411-7.476.675-10.585l-24.885-28.274c15.067-1.843 26.755-14.214 26.755-29.164zm-30.649 14.409c-3.39 0-9.733.029-14.789.055-.079-14.459-.036-10.845-.09-28.873h14.879c8.482 0 15.649 6.599 15.649 14.409s-7.167 14.409-15.649 14.409z"/></g></svg>