<svg height="402pt" viewBox="0 -31 402 402" width="402pt" xmlns="http://www.w3.org/2000/svg" xmlns:xlink="http://www.w3.org/1999/xlink"><linearGradient id="a"><stop offset="0" stop-color="#00efd1"/><stop offset="1" stop-color="#00acea"/></linearGradient><linearGradient id="b" gradientUnits="userSpaceOnUse" x1="201.002" x2="201.002" xlink:href="#a" y1="-68.233" y2="402.852"/><linearGradient id="c" gradientUnits="userSpaceOnUse" x1="105.092" x2="105.092" xlink:href="#a" y1="-68.233" y2="402.852"/><linearGradient id="d" gradientUnits="userSpaceOnUse" x1="163.083" x2="163.083" xlink:href="#a" y1="-68.233" y2="402.852"/><linearGradient id="e" gradientUnits="userSpaceOnUse" x1="47.102" x2="47.102" xlink:href="#a" y1="-68.233" y2="402.852"/><linearGradient id="f" gradientUnits="userSpaceOnUse" x1="201" x2="201" xlink:href="#a" y1="-68.233" y2="402.852"/><linearGradient id="g" gradientUnits="userSpaceOnUse" x1="201.017" x2="201.017" xlink:href="#a" y1="-68.233" y2="402.852"/><path d="m402 93.558594v-58.417969c0-19.339844-15.101562-35.140625-33.722656-35.140625h-334.558594c-18.617188 0-33.71875 15.800781-33.71875 35.140625v269.71875c0 19.339844 15.101562 35.140625 33.71875 35.140625h334.558594c18.621094 0 33.722656-15.800781 33.722656-35.140625v-211.144531c0-.027344 0-.054688 0-.078125 0-.027344 0-.050781 0-.078125zm-368.28125-79.558594h334.558594c10.898437 0 19.722656 9.519531 19.722656 21.140625v51.859375h-374v-51.859375c0-11.621094 8.820312-21.140625 19.71875-21.140625zm334.558594 312h-334.558594c-10.898438 0-19.71875-9.519531-19.71875-21.140625v-203.859375h374v203.859375c0 11.621094-8.824219 21.140625-19.722656 21.140625zm0 0" fill="url(#b)"/><path d="m105.09375 74.898438c13.699219 0 24.84375-11.535157 24.84375-25.71875 0-14.179688-11.148438-25.71875-24.84375-25.71875-13.699219 0-24.847656 11.539062-24.847656 25.71875 0 14.179687 11.148437 25.71875 24.847656 25.71875zm0-37.4375c5.976562 0 10.84375 5.257812 10.84375 11.71875 0 6.464843-4.867188 11.71875-10.84375 11.71875-5.980469 0-10.847656-5.253907-10.847656-11.71875 0-6.460938 4.867187-11.71875 10.847656-11.71875zm0 0" fill="url(#c)"/><path d="m163.082031 74.898438c13.699219 0 24.84375-11.535157 24.84375-25.71875 0-14.179688-11.144531-25.71875-24.84375-25.71875s-24.84375 11.539062-24.84375 25.71875c0 14.179687 11.144531 25.71875 24.84375 25.71875zm0-37.4375c5.980469 0 10.84375 5.257812 10.84375 11.71875 0 6.464843-4.863281 11.71875-10.84375 11.71875-5.976562 0-10.84375-5.253907-10.84375-11.71875 0-6.460938 4.863281-11.71875 10.84375-11.71875zm0 0" fill="url(#d)"/><path d="m47.101562 74.898438c13.699219 0 24.839844-11.535157 24.839844-25.71875 0-14.179688-11.140625-25.71875-24.839844-25.71875-13.703124 0-24.84375 11.539062-24.84375 25.71875 0 14.179687 11.140626 25.71875 24.84375 25.71875zm0-37.4375c5.976563 0 10.839844 5.257812 10.839844 11.71875 0 6.464843-4.859375 11.71875-10.839844 11.71875-5.984374 0-10.84375-5.253907-10.84375-11.71875 0-6.460938 4.863282-11.71875 10.84375-11.71875zm0 0" fill="url(#e)"/><path d="m282.558594 194.199219-12.75-1.226563c-1.492188-5.03125-3.542969-9.875-6.117188-14.445312l8.011719-9.683594c2.296875-2.773438 2.113281-6.835938-.421875-9.390625l-16.527344-16.695313c-2.550781-2.582031-6.652344-2.78125-9.445312-.464843l-9.722656 8.0625c-4.578126-2.550781-9.417969-4.597657-14.441407-6.097657l-1.222656-12.796874c-.339844-3.613282-3.339844-6.398438-6.96875-6.460938h-23.699219c-3.632812.0625-6.632812 2.847656-6.96875 6.464844l-1.226562 12.71875c-5.039063 1.484375-9.894532 3.535156-14.472656 6.109375l-9.691407-8.015625c-2.78125-2.304688-6.859375-2.113282-9.410156.441406l-16.730469 16.699219c-2.5625 2.554687-2.753906 6.640625-.445312 9.425781l8.050781 9.710938c-2.542969 4.570312-4.585937 9.40625-6.089844 14.417968l-12.828125 1.226563c-3.613281.335937-6.390625 3.34375-6.441406 6.96875v23.667969c.050781 3.625 2.828125 6.628906 6.441406 6.964843l12.75 1.226563c1.492188 5.03125 3.542969 9.875 6.117188 14.445312l-8.011719 9.683594c-2.308594 2.785156-2.113281 6.871094.449219 9.421875l16.734375 16.695313c2.554687 2.550781 6.632812 2.738281 9.414062.433593l9.726563-8.0625c4.574218 2.554688 9.417968 4.597657 14.4375 6.101563l1.226562 12.800781c.339844 3.609375 3.339844 6.390625 6.96875 6.453125h23.699219c3.628906-.0625 6.632813-2.847656 6.96875-6.464844l1.222656-12.71875c5.039063-1.484375 9.894531-3.535156 14.472657-6.109375l9.691406 8.015625c2.78125 2.304688 6.859375 2.113282 9.414062-.441406l16.726563-16.699219c2.5625-2.554687 2.753906-6.640625.445312-9.425781l-8.050781-9.710938c2.546875-4.574218 4.589844-9.40625 6.09375-14.421874l12.628906-1.222657c3.609375-.34375 6.382813-3.34375 6.433594-6.96875v-23.664062c-.050781-3.628907-2.828125-6.632813-6.441406-6.96875zm-7.558594 24.285156-11.171875 1.082031c-3.023437.292969-5.523437 2.484375-6.207031 5.449219-1.546875 6.855469-4.3125 13.378906-8.175782 19.253906-1.675781 2.566407-1.488281 5.925781.464844 8.289063l7.140625 8.621094-7.707031 7.683593-8.628906-7.152343c-2.375-1.96875-5.757813-2.152344-8.332032-.453126-5.839843 3.871094-12.351562 6.609376-19.199218 8.074219-3 .703125-5.214844 3.242188-5.5 6.308594l-1.082032 11.359375h-10.996093l-1.085938-11.359375c-.289062-3.054687-2.515625-5.574219-5.507812-6.242187-6.863281-1.53125-13.390625-4.296876-19.265625-8.15625-2.5625-1.652344-5.902344-1.457032-8.253906.484374l-8.628907 7.144532-7.699219-7.6875 7.144532-8.625c1.972656-2.378906 2.152344-5.769532.441406-8.34375-3.875-5.828125-6.621094-12.332032-8.101562-19.171875-.695313-2.984375-3.222657-5.191407-6.277344-5.476563l-11.371094-1.089844v-10.953124l11.367188-1.089844c3.027343-.289063 5.53125-2.484375 6.214843-5.449219 1.546875-6.855469 4.316407-13.378906 8.175781-19.253906 1.675782-2.566407 1.488282-5.925781-.464843-8.289063l-7.140625-8.621094 7.707031-7.683593 8.632813 7.152343c2.375 1.972657 5.757812 2.152344 8.328124.453126 5.839844-3.871094 12.351563-6.609376 19.203126-8.074219 2.996093-.703125 5.210937-3.242188 5.5-6.308594l1.082031-11.359375h10.996093l1.085938 11.359375c.289062 3.054687 2.511719 5.574219 5.507812 6.242187 6.863282 1.53125 13.390626 4.296876 19.265626 8.15625 2.5625 1.652344 5.898437 1.457032 8.253906-.484374l8.597656-7.121094 7.554688 7.636718-7.171876 8.652344c-1.972656 2.378906-2.152343 5.769532-.441406 8.34375 3.875 5.828125 6.621094 12.332032 8.101563 19.171875.695312 2.984375 3.222656 5.191407 6.277343 5.476563l11.367188 1.089844zm0 0" fill="url(#f)"/><path d="m201.015625 163.65625c-27.242187.035156-49.304687 22.140625-49.28125 49.386719.023437 27.242187 22.121094 49.3125 49.367187 49.300781 27.242188-.011719 49.324219-22.101562 49.324219-49.34375-.050781-27.257812-22.152343-49.332031-49.410156-49.34375zm0 84.6875c-19.511719-.035156-35.304687-15.875-35.28125-35.386719s15.855469-35.3125 35.367187-35.300781c19.511719.011719 35.324219 15.832031 35.324219 35.34375-.039062 19.527344-15.878906 35.339844-35.410156 35.34375zm0 0" fill="url(#g)"/></svg>