<svg id="Layer_1" height="512" viewBox="0 0 512 512" width="512" xmlns="http://www.w3.org/2000/svg" xmlns:xlink="http://www.w3.org/1999/xlink" data-name="Layer 1"><linearGradient id="GradientFill_1" gradientUnits="userSpaceOnUse" x2="512" y1="256" y2="256"><stop offset="0" stop-color="#5cc4bb"/><stop offset=".097" stop-color="#50c1c0"/><stop offset=".501" stop-color="#25b4d2"/><stop offset=".815" stop-color="#0aacde"/><stop offset="1" stop-color="#00a9e2"/></linearGradient><path d="m395.486 342.472a116.514 116.514 0 1 0 0-233.028h-.494a161.962 161.962 0 0 0 -55.07-76.095 158.982 158.982 0 0 0 -209.445 14.968 158.912 158.912 0 0 0 -46.5 110.56 91.971 91.971 0 0 0 7.993 183.595h45.546v91.469a3.021 3.021 0 0 1 -2.981 2.98h-20.906a29 29 0 1 0 0 16h20.906a19 19 0 0 0 18.981-18.98v-91.469h89.284v111.728a29 29 0 1 0 16 0v-111.728h89.284v91.469a19 19 0 0 0 18.98 18.98h20.907a29 29 0 1 0 0-16h-20.907a3.02 3.02 0 0 1 -2.98-2.98v-91.469zm-309.725 115.449a13 13 0 1 1 13-13 13.014 13.014 0 0 1 -13 13zm178.039 24.148a13 13 0 1 1 -13-13 13.014 13.014 0 0 1 13 13zm152.04-50.148a13 13 0 1 1 -13 13 13.014 13.014 0 0 1 13-13zm-399.84-181.421a76.056 76.056 0 0 1 75.97-75.969 8 8 0 0 0 8-8v-5.845c0-79.268 64.489-143.757 143.758-143.757 62.989 0 119.641 42.276 137.766 102.808a8 8 0 0 0 7.664 5.7h6.328a100.514 100.514 0 1 1 0 201.028h-303.516a76.056 76.056 0 0 1 -75.97-75.965z" fill="url(#GradientFill_1)"/></svg>