<svg height="480pt" viewBox="0 -48 480 480" width="480pt" xmlns="http://www.w3.org/2000/svg"><path d="m128 312v32c0 4.417969 3.582031 8 8 8v24c0 4.417969 3.582031 8 8 8h88c4.417969 0 8-3.582031 8-8v-32c0-4.417969-3.582031-8-8-8v-16c4.417969 0 8-3.582031 8-8v-32c0-4.417969-3.582031-8-8-8v-24c0-4.417969-3.582031-8-8-8h-88c-4.417969 0-8 3.582031-8 8v32c0 4.417969 3.582031 8 8 8v16c-4.417969 0-8 3.582031-8 8zm96 56h-72v-16h72zm0-64h-72v-16h72zm-80-48h72v16h-72zm0 64h72v16h-72zm0 0"/><path d="m8 352v24c0 4.417969 3.582031 8 8 8h88c4.417969 0 8-3.582031 8-8v-32c0-4.417969-3.582031-8-8-8v-24c0-4.417969-3.582031-8-8-8h-88c-4.417969 0-8 3.582031-8 8v32c0 4.417969 3.582031 8 8 8zm88 16h-72v-16h72zm-80-48h72v16h-72zm0 0"/><path d="m352 272h-88c-4.417969 0-8 3.582031-8 8v24c-4.417969 0-8 3.582031-8 8v32c0 4.417969 3.582031 8 8 8v24c0 4.417969 3.582031 8 8 8h88c4.417969 0 8-3.582031 8-8v-32c0-4.417969-3.582031-8-8-8v-16c4.417969 0 8-3.582031 8-8v-32c0-4.417969-3.582031-8-8-8zm-88 48h72v16h-72zm80 48h-72v-16h72zm0-64h-72v-16h72zm0 0"/><path d="m472 272v-24c0-4.417969-3.582031-8-8-8v-16c4.417969 0 8-3.582031 8-8v-32c0-4.417969-3.582031-8-8-8v-24c0-4.417969-3.582031-8-8-8h-88c-4.417969 0-8 3.582031-8 8v32c0 4.417969 3.582031 8 8 8v16c-4.417969 0-8 3.582031-8 8v32c0 4.417969 3.582031 8 8 8v24c0 4.417969 3.582031 8 8 8v16c-4.417969 0-8 3.582031-8 8v32c0 4.417969 3.582031 8 8 8v24c0 4.417969 3.582031 8 8 8h88c4.417969 0 8-3.582031 8-8v-32c0-4.417969-3.582031-8-8-8v-16c4.417969 0 8-3.582031 8-8v-32c0-4.417969-3.582031-8-8-8zm-96-112h72v16h-72zm80 32v16h-72v-16zm-80 48v-16h72v16zm80 16v16h-72v-16zm-72 64h72v16h-72zm80 48h-72v-16h72zm0-64h-72v-16h72zm0 0"/><path d="m189.128906 89.855469c-3.382812-2.824219-8.414062-2.378907-11.25.992187l-128 152c-1.859375 2.183594-2.410156 5.199219-1.4375 7.898438.96875 2.699218 3.3125 4.675781 6.140625 5.171875 2.828125.496093 5.703125-.558594 7.539063-2.765625l122.871094-145.914063 89.878906 74.90625c3.238281 2.703125 8.023437 2.425781 10.929687-.632812l146.199219-153.511719v20c0 4.417969 3.582031 8 8 8s8-3.582031 8-8v-40.089844c-.042969-.746094-.191406-1.484375-.441406-2.191406-.085938-.277344-.078125-.597656-.191406-.871094-.15625-.257812-.324219-.507812-.511719-.742187-.335938-.667969-.761719-1.28125-1.269531-1.824219l-.058594-.074219c-.285156-.214843-.59375-.410156-.910156-.574219-.488282-.410156-1.027344-.757812-1.601563-1.03125-.605469-.203124-1.234375-.328124-1.871094-.378906-.375-.105468-.757812-.1796872-1.144531-.222656h-40c-4.417969 0-8 3.582031-8 8s3.582031 8 8 8h21.328125l-141.960937 149.0625zm0 0"/></svg>