<svg height="496pt" viewBox="0 -40 496 496" width="496pt" xmlns="http://www.w3.org/2000/svg" xmlns:xlink="http://www.w3.org/1999/xlink"><linearGradient id="a" gradientUnits="userSpaceOnUse" x1="248" x2="248" y1="416" y2="0"><stop offset="0" stop-color="#9f2fff"/><stop offset="1" stop-color="#0bb1d3"/></linearGradient><path d="m32 200.808594c-18.230469 3.71875-32 19.878906-32 39.191406s13.769531 35.472656 32 39.191406v136.808594h464v-416h-464zm239.679688-16.257813 25.015624-25.007812 17.097657 10.144531 3.847656-1.839844c2.480469-1.175781 5.015625-2.238281 7.625-3.160156l4.03125-1.429688 4.910156-19.257812h35.578125l4.910156 19.257812 4.03125 1.429688c2.609376.914062 5.152344 1.976562 7.625 3.160156l3.847657 1.839844 17.097656-10.144531 25.152344 25.152343-10.144531 17.097657 1.839843 3.847656c1.175781 2.480469 2.238281 5.015625 3.160157 7.625l1.429687 4.03125 19.265625 4.910156v35.578125l-19.257812 4.910156-1.429688 4.03125c-.914062 2.609376-1.976562 5.152344-3.160156 7.625l-1.839844 3.847657 10.144531 17.097656-25.152343 25.152344-17.097657-10.144531-3.847656 1.839843c-2.480469 1.175781-5.015625 2.238281-7.625 3.160157l-4.03125 1.429687-4.910156 19.265625h-35.578125l-4.910156-19.257812-4.03125-1.429688c-2.609376-.914062-5.152344-1.976562-7.625-3.160156l-3.847657-1.839844-17.097656 10.144531-25.015625-25.007812 9.113281-14.371094-5.703125-17.078125h17.789063c9.699219 23.777344 33.074219 40 59.113281 40 35.289062 0 64-28.710938 64-64s-28.710938-64-64-64c-26.105469 0-49.542969 16.3125-59.183594 40.183594l-17.777344-.023438 5.746094-17.238281zm58.257812 31.6875-19.457031-.03125c8.441406-14.597656 24.183593-24.207031 41.519531-24.207031 26.472656 0 48 21.527344 48 48s-21.527344 48-48 48c-17.246094 0-32.921875-9.519531-41.390625-24h18.375l39.015625-9.753906v-28.492188zm-2.921875 15.761719 24.984375 6.246094v3.507812l-24.984375 6.246094h-151.015625v-16zm-263.015625 16h96v16h-96zm96-16h-96v-16h96zm-144 8c0-13.230469 10.769531-24 24-24h8v48h-8c-13.230469 0-24-10.769531-24-24zm32 160v-120h128v-16h82.238281l4.976563 14.921875-11.902344 18.773437 42.855469 42.863282 20.535156-12.183594c.394531.167969.785156.328125 1.167969.488281l5.921875 23.136719h60.421875l5.914062-23.144531c.390625-.160157.78125-.320313 1.167969-.488281l20.535156 12.183593 42.726563-42.726562-12.183594-20.535157c.167969-.394531.328125-.785156.488281-1.167968l23.136719-5.914063v-60.421875l-23.144531-5.914062c-.160157-.390625-.320313-.78125-.488281-1.167969l12.183593-20.535156-42.726562-42.726563-20.535157 12.183594c-.394531-.167969-.785156-.328125-1.167968-.488281l-5.914063-23.136719h-60.421875l-5.914062 23.144531c-.390625.160157-.78125.320313-1.167969.488281l-20.535156-12.183593-42.855469 42.863281 11.902344 18.777344-5.015625 15.054687-82.199219-.128906v-16.015625h-128v-120h432v320zm432-384v48h-432v-48zm-400 32h-16v-16h16zm32 0h-16v-16h16zm32 0h-16v-16h16zm0 0" fill="url(#a)"/></svg>